<?xml version="1.0" standalone="no"?>
<!DOCTYPE svg PUBLIC "-//W3C//DTD SVG 20010904//EN"
 "http://www.w3.org/TR/2001/REC-SVG-20010904/DTD/svg10.dtd">
<svg version="1.0" xmlns="http://www.w3.org/2000/svg"
 width="500.000000pt" height="500.000000pt" viewBox="0 0 500.000000 500.000000"
 preserveAspectRatio="xMidYMid meet">

<g transform="translate(0.000000,500.000000) scale(0.100000,-0.100000)"
fill="#000000" stroke="none">
<path d="M2326 4209 c-129 -14 -242 -38 -367 -79 -588 -193 -1039 -713 -1151
-1329 -30 -163 -30 -437 0 -602 42 -233 133 -460 263 -656 103 -154 312 -362
469 -466 517 -342 1142 -388 1700 -126 288 136 568 390 734 666 369 617 311
1412 -144 1968 -366 447 -937 684 -1504 624z m452 -114 c224 -37 500 -156 682
-293 341 -258 560 -615 636 -1037 24 -136 24 -405 1 -532 -62 -330 -201 -609
-419 -839 -233 -245 -513 -404 -833 -473 -294 -64 -574 -48 -866 49 -240 79
-428 198 -625 395 -147 146 -231 264 -313 435 -242 509 -206 1106 95 1567 274
421 699 687 1188 743 99 12 343 4 454 -15z"/>
<path d="M2348 4013 c-34 -3 -48 -8 -48 -19 0 -9 11 -14 36 -14 31 0 35 -3 32
-22 -2 -15 -11 -24 -25 -26 -47 -7 -17 -102 32 -102 24 0 55 23 55 41 0 14
-38 11 -43 -3 -3 -10 -7 -10 -17 -1 -25 23 -3 44 42 41 40 -3 43 -5 46 -35 2
-21 9 -33 18 -33 13 0 15 13 12 75 -2 55 0 75 10 75 6 0 12 7 12 15 0 15 -41
17 -162 8z m102 -48 c0 -18 -5 -25 -20 -25 -15 0 -20 7 -20 25 0 18 5 25 20
25 15 0 20 -7 20 -25z"/>
<path d="M2570 4007 c0 -10 14 -18 39 -22 32 -5 38 -10 34 -26 -4 -13 -14 -19
-34 -19 -27 0 -29 -2 -29 -43 0 -24 5 -48 12 -55 20 -20 66 -15 78 9 15 27 5
37 -22 20 -14 -8 -24 -9 -31 -2 -15 15 -1 39 25 43 16 2 26 13 33 36 5 17 13
32 17 32 4 0 8 7 8 15 0 11 -11 15 -42 15 -24 0 -53 3 -65 6 -17 5 -23 2 -23
-9z"/>
<path d="M2760 3986 c0 -10 16 -19 43 -26 65 -17 67 -18 61 -35 -5 -12 -10
-13 -17 -6 -15 15 -60 14 -75 -1 -17 -17 -15 -73 3 -88 8 -7 26 -10 40 -8 19
4 25 1 23 -11 -2 -8 4 -17 13 -19 11 -2 19 15 33 72 13 56 21 73 32 69 8 -3
14 1 14 10 0 10 -22 20 -67 31 -38 9 -76 19 -85 22 -12 3 -18 0 -18 -10z m87
-102 c3 -8 -1 -22 -9 -30 -12 -12 -17 -12 -33 -1 -23 17 -14 47 15 47 11 0 23
-7 27 -16z"/>
<path d="M2010 3938 c-96 -34 -97 -35 -84 -48 7 -7 21 -6 43 1 25 9 35 9 44 0
9 -10 6 -17 -15 -33 -47 -33 -32 -88 23 -88 32 0 46 15 51 54 5 44 25 43 39
-2 9 -30 16 -38 29 -35 17 5 17 9 -6 76 -15 44 -20 73 -14 75 17 6 11 32 -7
31 -10 0 -56 -14 -103 -31z m73 -32 c3 -8 3 -17 0 -20 -13 -12 -31 -5 -36 14
-4 15 0 20 13 20 10 0 20 -6 23 -14z m-43 -92 c0 -8 -9 -14 -20 -14 -22 0 -28
26 -7 33 16 6 27 -1 27 -19z"/>
<path d="M3010 3905 c-19 -22 3 -44 24 -25 13 10 17 9 22 -4 9 -24 -2 -31 -41
-27 -26 2 -36 -3 -45 -19 -15 -28 -4 -59 27 -71 33 -12 31 -13 59 18 17 19 28
23 35 16 15 -15 -13 -66 -45 -81 -29 -13 -35 -52 -12 -71 19 -16 32 5 16 24
-10 12 -9 16 5 22 24 9 44 -20 37 -53 -4 -20 -1 -25 9 -22 17 5 25 66 11 80
-15 15 46 148 64 141 26 -10 15 24 -12 35 -23 11 -26 10 -36 -18 -15 -46 -44
-37 -40 13 3 32 0 38 -23 47 -35 13 -40 13 -55 -5z m25 -94 c3 -5 1 -13 -5
-16 -15 -9 -43 3 -35 15 8 13 32 13 40 1z"/>
<path d="M1768 3827 c-55 -31 -74 -47 -69 -56 7 -10 12 -10 29 0 17 11 24 11
34 1 10 -10 10 -17 -1 -34 -12 -20 -11 -24 13 -44 22 -20 30 -22 57 -12 17 6
33 17 36 26 5 13 8 13 18 -2 8 -10 19 -14 29 -10 14 6 12 15 -19 71 -22 41
-33 72 -30 84 9 29 -11 24 -97 -24z m77 -47 c20 -45 10 -70 -29 -70 -19 0 -21
5 -21 48 0 42 8 61 26 62 3 0 14 -18 24 -40z"/>
<path d="M3245 3810 c-3 -5 14 -24 40 -42 43 -30 59 -58 33 -58 -7 0 -22 7
-32 15 -28 22 -63 18 -80 -7 -20 -28 -20 -48 -3 -73 19 -25 41 -11 24 15 -9
16 -9 23 5 36 13 13 20 14 39 4 13 -7 26 -14 27 -16 2 -1 -8 -19 -22 -40 -19
-28 -22 -40 -13 -46 20 -13 23 -10 63 52 42 64 46 67 62 47 8 -10 1 -28 -28
-73 -45 -66 -46 -70 -26 -77 10 -4 27 14 53 54 22 33 45 59 55 59 40 0 21 22
-76 89 -58 39 -107 71 -110 71 -2 0 -8 -4 -11 -10z"/>
<path d="M2610 3804 c0 -16 23 -44 35 -44 18 0 18 5 5 31 -10 17 -40 27 -40
13z"/>
<path d="M2147 3772 c-16 -3 -15 -6 7 -23 25 -20 46 -25 46 -11 0 16 -35 39
-53 34z"/>
<path d="M1551 3683 c-58 -46 -79 -69 -72 -76 8 -8 20 -4 41 11 16 12 33 22
39 22 16 0 20 -28 5 -40 -20 -17 -18 -67 4 -78 40 -22 93 29 71 69 -8 16 -8
24 1 33 9 8 18 3 39 -22 25 -29 30 -31 41 -17 10 13 5 24 -34 69 -28 33 -44
60 -40 69 13 35 -17 22 -95 -40z m71 -35 c-17 -17 -47 9 -30 29 10 12 13 12
27 -1 11 -12 12 -19 3 -28z m-8 -73 c3 -9 -1 -18 -10 -22 -19 -7 -28 2 -21 22
8 19 23 19 31 0z"/>
<path d="M3512 3623 c-8 -3 5 -25 38 -63 27 -32 50 -60 50 -64 0 -15 -26 -3
-61 29 -42 38 -56 42 -81 23 -20 -16 -24 -36 -14 -65 10 -30 42 -38 71 -19 30
19 35 20 35 3 0 -7 -13 -26 -30 -42 -22 -21 -27 -32 -19 -42 9 -10 23 -2 67
37 31 28 59 50 63 50 4 0 10 -7 13 -16 5 -12 -9 -31 -46 -65 -41 -37 -50 -50
-41 -60 9 -9 23 -2 64 32 29 24 61 44 71 44 10 0 18 4 19 8 1 9 -136 171 -169
199 -9 9 -23 13 -30 11z m-2 -118 c0 -19 -20 -29 -32 -17 -15 15 -2 43 17 36
8 -3 15 -12 15 -19z"/>
<path d="M1725 3570 c-9 -15 46 -33 59 -20 8 8 7 14 -4 20 -20 13 -47 13 -55
0z"/>
<path d="M1415 3560 c-4 -7 -19 -8 -36 -5 -36 8 -88 -20 -70 -38 8 -8 14 -8
23 1 13 13 48 17 48 5 0 -4 -16 -24 -36 -44 -33 -34 -39 -66 -11 -56 7 2 28
-7 47 -20 19 -12 42 -23 51 -23 19 0 49 31 49 50 0 9 6 8 20 -5 16 -15 23 -16
33 -6 10 10 1 23 -43 62 -30 27 -54 55 -52 63 3 18 -14 30 -23 16z m10 -71 c9
-13 6 -16 -30 -25 l-30 -7 19 22 c21 23 32 26 41 10z m33 -46 c-4 -23 -34 -29
-55 -11 -14 11 -13 13 8 19 41 12 51 10 47 -8z"/>
<path d="M1215 3298 c-26 -46 -54 -93 -62 -104 -12 -19 -12 -22 1 -27 10 -4
23 9 41 38 17 31 30 42 41 38 13 -5 13 -8 -1 -23 -25 -27 -16 -72 17 -88 36
-17 68 -1 68 34 0 20 4 24 19 19 34 -11 31 20 -4 40 -40 21 -49 39 -29 55 17
15 46 -4 38 -24 -3 -8 2 -16 10 -19 21 -8 33 38 15 59 -25 30 -49 36 -75 19
-13 -8 -24 -22 -24 -30 0 -8 -4 -15 -8 -15 -21 0 -20 16 3 56 29 49 30 54 11
54 -7 0 -35 -37 -61 -82z m85 -108 c0 -24 -26 -38 -42 -22 -16 16 -2 42 22 42
13 0 20 -7 20 -20z"/>
<path d="M3741 3351 c-10 -6 -8 -15 8 -42 15 -24 17 -36 9 -46 -8 -10 -16 -8
-39 12 -37 30 -72 22 -77 -19 -5 -42 24 -69 65 -61 43 8 45 -18 3 -40 -31 -16
-35 -22 -22 -42 5 -8 27 1 72 28 46 27 66 35 72 26 5 -8 10 -9 18 -1 8 8 -4
36 -40 100 -61 105 -53 95 -69 85z m-35 -102 c7 -12 -15 -31 -28 -23 -4 3 -8
12 -8 20 0 17 26 19 36 3z m94 -34 c0 -7 -7 -16 -15 -19 -20 -7 -33 23 -14 34
16 10 29 4 29 -15z"/>
<path d="M2547 3239 c12 -31 14 -59 9 -119 -18 -233 -18 -234 1 -269 20 -39
55 -67 95 -76 26 -7 28 -4 44 51 26 92 7 187 -63 297 -29 46 -18 47 34 2 80
-68 133 -189 120 -273 l-6 -37 28 33 c47 55 52 112 17 187 -39 83 -154 185
-259 228 l-36 16 16 -40z"/>
<path d="M1379 3184 c-11 -14 -9 -15 21 -12 18 2 35 9 38 16 6 18 -43 15 -59
-4z"/>
<path d="M3650 3098 c-7 -15 -9 -35 -6 -45 7 -16 9 -15 22 10 10 19 12 33 5
44 -8 16 -11 14 -21 -9z"/>
<path d="M2048 3085 c-74 -16 -207 -80 -283 -137 -75 -56 -169 -142 -195 -178
l-19 -27 22 4 c37 7 152 -24 229 -63 40 -20 121 -65 180 -101 209 -125 291
-147 377 -103 39 20 96 78 121 124 12 23 10 29 -25 71 -127 156 -379 205 -665
129 -22 -6 -21 -3 10 20 185 143 410 166 613 65 l57 -29 0 37 c0 84 -65 159
-166 189 -57 17 -177 17 -256 -1z"/>
<path d="M2212 2881 c187 -60 332 -205 398 -397 26 -75 25 -90 -9 -165 -43
-96 -65 -208 -57 -293 4 -39 7 -82 9 -95 2 -21 -4 -26 -48 -37 -65 -17 -93
-33 -101 -56 -34 -107 439 -132 504 -27 11 17 9 23 -12 44 -13 13 -42 29 -65
35 l-42 11 8 47 c12 69 9 219 -6 282 -7 30 -26 92 -43 138 l-29 82 20 33 c25
41 124 136 176 171 22 14 34 26 27 26 -27 0 -135 -63 -195 -114 l-62 -53 -33
53 c-104 168 -248 282 -404 319 -86 20 -105 18 -36 -4z m482 -636 c18 -73 21
-225 5 -288 -8 -34 -15 -42 -34 -43 -21 -2 -27 5 -37 40 -21 71 -16 201 11
284 13 39 27 72 31 72 4 0 15 -29 24 -65z"/>
<path d="M2952 2853 c-69 -24 -119 -81 -138 -159 l-6 -25 34 21 c151 89 370
84 508 -11 41 -28 42 -30 15 -24 -16 4 -80 9 -140 12 -101 5 -117 3 -189 -21
-89 -30 -153 -71 -192 -122 l-27 -35 29 -41 c41 -58 75 -80 132 -86 73 -7 133
18 273 110 145 95 195 119 268 127 l54 6 -62 63 c-97 97 -200 160 -305 188
-67 18 -200 16 -254 -3z"/>
<path d="M1065 2581 c-46 -14 -61 -22 -63 -39 -3 -17 5 -23 45 -35 l48 -14
-48 -13 c-40 -10 -48 -16 -45 -33 3 -20 7 -22 121 -50 22 -6 27 -4 27 12 0 15
-10 20 -51 26 -57 8 -55 16 9 34 30 8 42 17 42 31 0 14 -10 20 -42 25 -51 9
-85 24 -53 25 40 0 95 21 95 35 0 18 -9 18 -85 -4z"/>
<path d="M3970 2575 c0 -24 -3 -25 -60 -25 -47 0 -60 -3 -60 -15 0 -12 15 -15
75 -15 l75 0 0 40 c0 29 -4 40 -15 40 -9 0 -15 -9 -15 -25z"/>
<path d="M3953 2300 c-6 -22 -7 -22 -75 -11 -36 6 -48 5 -52 -6 -3 -8 0 -16 7
-18 19 -6 130 -25 133 -22 1 1 5 19 9 40 8 40 -12 55 -22 17z"/>
<path d="M1100 2203 c-30 -8 -56 -16 -57 -17 -1 -1 3 -21 9 -44 12 -47 32 -52
33 -7 0 36 22 44 31 11 8 -32 33 -24 26 10 -6 33 25 33 34 0 3 -14 11 -23 18
-20 19 7 -3 84 -24 83 -8 0 -40 -8 -70 -16z"/>
<path d="M3757 2043 c-16 -15 -4 -38 44 -81 67 -61 73 -63 65 -20 -7 41 0 68
20 68 7 0 18 9 24 20 10 19 8 20 -68 20 -43 0 -82 -3 -85 -7z m93 -30 c0 -5
-4 -14 -9 -21 -6 -10 -13 -8 -32 7 l-24 20 33 1 c17 0 32 -3 32 -7z"/>
<path d="M1205 1938 c-33 -17 -61 -32 -63 -33 -7 -7 33 -75 42 -71 12 4 12 10
1 38 -5 13 5 23 44 43 48 24 61 38 44 48 -5 3 -35 -9 -68 -25z"/>
<path d="M1340 1708 c-30 -21 -56 -42 -57 -46 -2 -4 8 -20 21 -37 25 -32 49
-28 28 5 -10 16 -6 23 31 51 23 18 46 36 50 39 4 4 2 12 -5 17 -10 8 -27 1
-68 -29z"/>
<path d="M3499 1624 l-34 -35 55 -48 c41 -37 58 -46 68 -38 10 8 8 15 -9 33
-18 19 -20 26 -10 38 7 8 9 21 5 27 -5 9 -11 7 -20 -6 -8 -10 -20 -15 -29 -11
-15 5 -14 9 4 35 31 43 10 46 -30 5z"/>
<path d="M3293 1439 c-25 -9 -53 -47 -53 -72 0 -24 53 -77 78 -77 35 0 72 38
72 74 0 58 -46 94 -97 75z m55 -41 c19 -19 14 -56 -8 -68 -38 -21 -80 22 -60
61 12 21 50 25 68 7z"/>
<path d="M1676 1375 c-20 -30 -36 -59 -36 -65 0 -6 20 -20 44 -32 38 -18 47
-19 61 -8 9 8 14 22 12 31 -3 12 2 20 13 24 36 11 34 38 -6 73 -20 17 -40 32
-44 32 -4 0 -24 -25 -44 -55z m74 0 c6 -8 9 -19 5 -25 -10 -16 -45 7 -39 25 8
19 18 19 34 0z m-30 -50 c10 -12 10 -19 2 -27 -15 -15 -43 8 -35 28 7 18 17
18 33 -1z"/>
<path d="M1966 1282 c-7 -12 -46 -116 -46 -124 0 -6 64 -38 76 -38 14 0 0 30
-17 35 -12 4 -19 13 -16 23 3 17 9 18 40 7 11 -5 17 -2 17 8 0 8 -9 17 -21 20
-33 9 -17 32 19 29 18 -2 32 1 32 7 0 6 -2 11 -4 11 -2 0 -20 7 -39 15 -20 8
-38 11 -41 7z"/>
<path d="M2814 1222 c-59 -9 -77 -88 -30 -129 33 -28 56 -29 90 -2 18 14 26
30 26 51 0 29 -2 30 -31 24 -17 -3 -35 -6 -40 -6 -5 0 -6 -6 -3 -14 3 -8 13
-12 25 -9 21 6 25 -7 7 -25 -26 -26 -68 1 -68 43 0 26 17 35 67 35 29 0 33 2
24 14 -14 16 -38 23 -67 18z"/>
<path d="M2211 1147 c-14 -81 -14 -87 3 -87 9 0 18 19 25 50 15 69 14 100 -3
100 -9 0 -18 -21 -25 -63z"/>
<path d="M2440 1105 c0 -59 3 -75 14 -75 11 0 16 14 18 48 l3 47 33 -47 c48
-70 62 -64 62 27 0 59 -3 75 -14 75 -11 0 -16 -14 -18 -47 l-3 -48 -30 47
c-17 28 -38 48 -47 48 -16 0 -18 -10 -18 -75z"/>
</g>
</svg>
